<svg xmlns="http://www.w3.org/2000/svg" viewBox="0 0 122.88 121">
	<path fill="#ef4136" fill-rule="evenodd" d="M11.52,6.454313 h99.84 a11.57,11.57 0 0 1 11.52,11.52 V44.724312 H0 V17.974314 A11.56,11.56 0 0 1 11.52,6.454313 m24.79,9.75 A9.31,9.31 0 1 1 27,25.514313 a9.31,9.31 0 0 1 9.31,-9.31 m49.79,0 a9.31,9.31 0 1 1 -9.31,9.31 a9.31,9.31 0 0 1 9.31,-9.31 " />
	<path fill="#808080" d="M111.36,121H11.52A11.57,11.57,0,0,1,0,109.48V40H122.88v69.46A11.56,11.56,0,0,1,111.36,121Z" />
	<path fill-rule="evenodd" fill="#fff" d="M12.75,117.309998 h97.38 a9.1,9.1 0 0 0 9.06,-9.06 V40 H3.69 v68.23 a9.09,9.09 0 0 0 9.06,9.06 " />
	<path fill-rule="evenodd" fill="#c72b20" d="M86.1,14.63a11.11,11.11,0,1,1-7.85,3.26l.11-.1a11.06,11.06,0,0,1,7.74-3.16Zm0,1.79a9.31,9.31,0,1,1-9.31,9.31,9.31,9.31,0,0,1,9.31-9.31Z" />
	<path fill-rule="evenodd" fill="#c72b20" d="M36.31,14.63a11.11,11.11,0,1,1-7.85,3.26l.11-.1a11.08,11.08,0,0,1,7.74-3.16Zm0,1.79A9.31,9.31,0,1,1,27,25.73a9.31,9.31,0,0,1,9.31-9.31Z" />
	<path fill="#1a1a1a" d="M80.54,4.56C80.54,2,83,0,86.1,0s5.56,2,5.56,4.56V25.77c0,2.51-2.48,4.56-5.56,4.56s-5.56-2-5.56-4.56V4.56Z" />
	<path fill="#1a1a1a" d="M30.75,4.56C30.75,2,33.24,0,36.31,0s5.56,2,5.56,4.56V25.77c0,2.51-2.48,4.56-5.56,4.56s-5.56-2-5.56-4.56V4.56Z" />
	<text stroke="none" style="outline-style:none;" stroke-width="1px" x="61.871365px" font-weight="bold" text-rendering="geometricPrecision" font-family="Avenir-Book" fill="#000000" font-size="40px" y="90.156853px" transform="" text-anchor="middle">
		MAY
	</text>
</svg>
